PathFileType	3	(X/Y/Z)	RCH0000002 BBF 08.c3d
DataRate	CameraRate	NumFrames	NumMarkers	Units	OrigDataRate	OrigDataStartFrame	OrigNumFrames
100.0	100.0	9	23	mm	100.0	499	516
Frame#	Time	MAN			LASI			RASI			LPAT			LKNE			LANK			LMED			LTOE			RKNE			RANK			RMED			RHEE			RTOE			LHEE			RPAT			RPSI			T2			LPSI			T10			RTHI			LTHI			RTIB			LTIB			
		X1	Y1	Z1	X2	Y2	Z2	X3	Y3	Z3	X4	Y4	Z4	X5	Y5	Z5	X6	Y6	Z6	X7	Y7	Z7	X8	Y8	Z8	X9	Y9	Z9	X10	Y10	Z10	X11	Y11	Z11	X12	Y12	Z12	X13	Y13	Z13	X14	Y14	Z14	X15	Y15	Z15	X16	Y16	Z16	X17	Y17	Z17	X18	Y18	Z18	X19	Y19	Z19	X20	Y20	Z20	X21	Y21	Z21	X22	Y22	Z22	X23	Y23	Z23	

499	4.980	2154.15878	11.95334	938.99574	2104.42330	95.94844	641.99264	2146.71006	-75.53621	634.27706	2040.53639	50.68580	358.39203	1984.27777	106.65152	335.63248	1844.95854	103.75489	95.46199	1852.95397	35.51431	113.95715	1889.70308	66.84832	76.46700	2229.59800	-58.14026	355.28059	2193.91493	-106.64891	92.56693	2166.61140	-41.10419	95.52606	2141.51945	-84.85735	120.41688	2228.45863	-62.18984	81.79541	1818.25508	66.31998	139.51129	2251.86155	3.20901	401.42704	2023.56217	-54.06904	683.18225	2022.59494	1.02086	968.20097	2010.12465	14.02619	688.44819	2030.85736	-10.91217	782.28017	2208.71373	-132.92497	461.57464	2015.10551	177.09958	456.53045	2231.37843	-142.19401	254.58175	1921.52601	169.89526	232.91698	
500	4.990	2164.76495	10.61331	937.82013	2115.62788	95.74753	639.80852	2158.16878	-75.68312	633.48394	2053.42289	49.98241	355.14606	1996.53958	105.52367	332.93736	1849.82958	103.72286	98.15997	1857.82500	35.43358	116.00982	1893.22536	66.51866	77.20534	2238.02580	-57.85833	352.10852	2200.83620	-107.66678	89.82119	2172.54373	-42.43268	93.27365	2148.30488	-86.73749	118.00142	2234.73136	-62.63126	79.69743	1824.58570	66.36269	143.01201	2259.98787	4.09360	397.66097	2034.87315	-53.94196	682.07012	2033.08046	-0.63243	966.48654	2021.28007	14.19349	686.43206	2042.06891	-10.89386	780.58915	2219.16765	-132.32963	458.98788	2026.66952	176.17872	453.88021	2240.46969	-142.10046	251.49974	1931.46631	169.11077	232.57141	
501	5.000	2175.29384	9.41176	936.88700	2126.91723	95.41724	637.55232	2169.57878	-75.96272	633.03649	2067.27260	49.09423	351.81194	2009.82121	104.21910	330.04302	1855.71450	103.64432	101.14690	1863.60585	35.30537	118.25932	1897.59450	66.12305	78.14827	2245.80876	-58.03775	349.20971	2205.74660	-108.84448	87.58506	2176.68721	-43.86785	91.65243	2153.30478	-88.63184	116.32015	2239.05847	-63.32951	77.96492	1831.98568	66.36751	146.75966	2267.74402	4.37461	394.14447	2046.22939	-53.70915	681.41610	2043.46301	-2.14398	964.86434	2032.49695	14.48650	684.65340	2053.42590	-10.64240	779.02805	2229.11233	-132.20906	456.65664	2038.81790	175.04285	451.14107	2248.16674	-142.37913	248.67291	1942.59298	168.19462	232.20230	
502	5.010	2185.72191	8.38402	936.23658	2138.25166	94.92330	635.30734	2180.87873	-76.40729	632.98255	2081.98011	48.03934	348.52292	2024.02869	102.77161	327.07449	1862.68657	103.51463	104.41423	1870.40307	35.12484	120.69227	1902.94394	65.69396	79.33235	2252.90941	-58.71690	346.69599	2208.97595	-110.12886	85.85497	2179.35827	-45.36188	90.63918	2156.80399	-90.49593	115.31664	2241.77703	-64.22781	76.60826	1840.50313	66.30640	150.70858	2275.07255	4.00106	391.01117	2057.57407	-53.40193	681.26658	2053.72541	-3.45597	963.40112	2043.72990	14.87064	683.18814	2064.86874	-10.16893	777.66736	2238.47788	-132.61374	454.66780	2051.49615	173.70323	448.43496	2254.55982	-143.05343	246.14777	1954.82677	167.16414	231.89664	
503	5.020	2196.02785	7.55986	935.90778	2149.59526	94.23874	633.16827	2192.01519	-77.04284	633.35645	2097.41769	46.85101	345.43412	2039.03912	101.22457	324.18073	1870.78985	103.32426	107.93930	1878.31604	34.88153	123.27936	1909.40149	65.27037	80.78502	2259.29086	-59.91745	344.64146	2210.88408	-111.46771	84.59371	2180.89181	-46.87145	90.17653	2159.11093	-92.29839	114.89624	2243.24707	-65.26409	75.61071	1850.15826	66.13709	154.79487	2281.91032	2.95377	388.34525	2068.85621	-53.05736	681.65051	2063.85359	-4.51877	962.16374	2054.93926	15.30424	682.10707	2076.33622	-9.49766	776.57629	2247.21225	-133.56695	453.08103	2064.63039	172.18487	445.90144	2259.76554	-144.13065	243.94672	1968.03717	166.03955	231.76414	
504	5.030	2206.19358	6.96151	935.93536	2160.91676	93.34650	631.23531	2202.94515	-77.88669	634.17619	2113.44592	45.57682	342.71172	2054.71026	99.62833	321.52380	1880.03994	103.05810	111.68285	1887.43339	34.55975	125.97383	1917.08400	64.89376	82.51930	2264.92395	-61.63995	343.08223	2211.82681	-112.81461	83.73945	2181.61233	-48.36039	90.18249	2160.52874	-94.02077	114.94046	2243.82035	-66.37761	74.93464	1860.94559	65.80533	158.93704	2288.19659	1.24917	386.18193	2080.03295	-52.71572	682.57748	2073.83712	-5.29445	961.21504	2066.09238	15.74142	681.47141	2087.76894	-8.66481	775.81790	2255.28611	-135.06164	451.92696	2078.13108	170.52552	443.68789	2263.91601	-145.59972	242.07169	1982.05501	164.84271	231.92767	
505	5.040	2216.20513	6.60210	936.34697	2172.18990	92.24127	629.60720	2213.63730	-78.94586	635.44184	2129.92488	44.27621	340.52017	2070.89180	98.03678	319.26583	1890.42886	102.69533	115.58732	1897.82986	34.13967	128.71198	1926.09254	64.60251	84.52951	2269.79330	-63.86075	342.02054	2212.12697	-114.13090	83.21741	2181.81035	-49.79971	90.56192	2161.33118	-95.65351	115.32311	2243.81418	-67.51361	74.52945	1872.83940	65.24933	163.03856	2293.88017	-1.06065	384.51432	2091.07071	-52.41730	684.03718	2083.66974	-5.75970	960.60962	2077.16406	16.13592	681.32873	2099.11237	-7.71659	775.44451	2262.69445	-137.06074	451.20801	2091.89876	168.77326	441.93785	2267.14742	-147.43049	240.50966	1996.69035	163.59534	232.50937	
506	5.050	2226.05355	6.48485	937.16013	2183.39347	90.93013	628.37383	2224.07216	-80.21641	637.13536	2146.72455	43.01641	339.00892	2087.43705	96.50359	317.55543	1901.93303	102.21032	119.57641	1909.56334	33.59935	131.41611	1936.50830	64.42591	86.78861	2273.90181	-66.53106	341.43176	2212.05400	-115.38531	82.95171	2181.72665	-51.16578	91.21813	2161.74622	-97.18992	115.92538	2243.49329	-68.62555	74.33981	1885.80145	64.40652	166.99225	2298.92534	-3.89180	383.30475	2101.94525	-52.19882	686.00009	2093.34979	-5.90773	960.39019	2088.13605	16.44537	681.70935	2110.31924	-6.70618	775.49377	2269.45495	-139.50061	450.90158	2105.83144	166.98314	440.77854	2269.59012	-149.57469	239.23896	2011.75331	162.31716	233.61387	
507	5.060	2235.73547	6.60286	938.37953	2194.51093	89.43225	627.60913	2234.24106	-81.68363	639.22171	2163.73316	41.86718	338.30031	2104.21405	95.07825	316.51502	1914.52262	101.57480	123.55654	1922.67233	32.91748	133.99986	1948.38944	64.37869	89.24802	2277.27324	-69.57850	341.27264	2211.81381	-116.55231	82.87523	2181.54510	-52.43785	92.06252	2161.94858	-98.62048	116.64757	2243.06086	-69.67563	74.31269	1899.78917	63.22202	170.68649	2303.31609	-7.13560	382.49750	2112.64068	-52.08986	688.41916	2102.88051	-5.74896	960.58464	2098.99585	16.63548	682.62350	2121.35108	-5.68996	775.98574	2275.60426	-142.29701	450.96486	2119.83298	165.21320	440.30912	2271.36184	-151.96868	238.23514	2027.07491	161.02411	235.31152	
